<?xml version="1.0" encoding="utf-8"?>
<!-- Generator: Adobe Illustrator 25.4.1, SVG Export Plug-In . SVG Version: 6.00 Build 0)  -->
<svg version="1.1" xmlns="http://www.w3.org/2000/svg" xmlns:xlink="http://www.w3.org/1999/xlink" x="0px" y="0px"
	 viewBox="0 0 197.86 272.98" style="enable-background:new 0 0 197.86 272.98;" xml:space="preserve">
<style type="text/css">
	.st0{fill:none;stroke:#FFFFFF;stroke-width:3;stroke-linecap:round;stroke-linejoin:round;stroke-miterlimit:10;}
	.st1{fill:none;stroke:#FFFFFF;stroke-width:7;stroke-linecap:round;stroke-linejoin:round;stroke-miterlimit:10;}
</style>
<g id="Слой_2">
</g>
<g id="Слой_4">
	<g>
		<path class="st0" d="M27.94,124.16C0.38,101.29-11.84,4.42,29.86,3.07c34.39-2.42,49.32,72.9,34.66,114.16"/>
		<path class="st0" d="M40.28,117.83c0,0-32.72-72.09-8.91-77.76S49.13,116,49.13,116"/>
		<path class="st0" d="M129.26,63.59c0,0,27.21,54.24,57.83,28.25c17.57-15.87,6.99-71.24-35.91-66.9s-38.23,91.97-38.23,91.97
			l0.1,2.03"/>
		<path class="st0" d="M164.78,98.31c-3.48,9.35-8.89,18-16.24,25.86"/>
		<path class="st0" d="M135.04,73.25c0,0-13.53,29.93-5.59,39.38s25.29-18.69,25.29-18.69"/>
		<path class="st0" d="M157.89,208.63c36.63-58.11-17.04-122.46-68.6-75.4c-29.2-29.76-68.46-17.02-77.67,17.57"/>
		<path class="st0" d="M149.29,222.99c-3.21,5.29-35.34,47.15-58.5,46.87c-27.67,0-86.63-64.63-82.66-103.75"/>
		<line class="st1" x1="48" y1="155.97" x2="48" y2="207.5"/>
		<line class="st1" x1="78" y1="155.97" x2="78" y2="207.5"/>
		<line class="st1" x1="48" y1="179.34" x2="78" y2="179.34"/>
		<path class="st1" d="M99.97,180.65"/>
		<path class="st1" d="M100.07,207.5v-51.52c0,0,26.88-1.96,26.88,11.65c0,13.61-26.88,11.72-26.88,11.72s33.16-1.13,33.16,12.28
			C133.23,209.57,100.07,207.5,100.07,207.5z"/>
	</g>
</g>
</svg>
